<?xml version="1.0" encoding="UTF-8" standalone="no"?>
<!DOCTYPE svg PUBLIC "-//W3C//DTD SVG 1.1//EN" "http://www.w3.org/Graphics/SVG/1.1/DTD/svg11.dtd">
<svg width="100%" height="100%" viewBox="0 0 2000 1131" version="1.1" xmlns="http://www.w3.org/2000/svg" xmlns:xlink="http://www.w3.org/1999/xlink" xml:space="preserve" xmlns:serif="http://www.serif.com/" style="fill-rule:evenodd;clip-rule:evenodd;stroke-linejoin:round;stroke-miterlimit:2;">
    <rect id="blu_preto" x="0" y="0" width="2000" height="1130.02" style="fill:none;"/>
    <g>
        <g>
            <path d="M1234.08,597.677L935.928,597.677C924.596,597.677 915.388,588.482 915.388,577.13L915.388,55.117C915.388,51.329 912.305,48.273 908.53,48.273L709.325,48.273C705.549,48.273 702.473,51.329 702.473,55.117L702.473,773.965C702.473,777.747 705.549,780.803 709.325,780.803L1234.08,780.803C1237.85,780.803 1240.92,777.747 1240.92,773.965L1240.92,604.528C1240.92,600.76 1237.85,597.677 1234.08,597.677" style="fill-rule:nonzero;"/>
            <path d="M1960,55.18C1960,51.359 1956.92,48.276 1953.12,48.276L1752.68,48.276C1748.9,48.276 1745.81,51.359 1745.81,55.18L1745.81,499.459C1745.81,571.68 1703.29,616.569 1634.9,616.569C1566.1,616.569 1525.01,572.759 1525.01,499.459L1525.01,55.18C1525.01,51.359 1521.93,48.276 1518.13,48.276L1316.66,48.276C1312.85,48.276 1309.76,51.359 1309.76,55.18L1309.76,498.4C1309.76,692.086 1425.21,798.75 1634.9,798.75C1844.53,798.75 1960,692.086 1960,498.4L1960,55.18Z" style="fill-rule:nonzero;"/>
            <path d="M321.32,273.183C321.32,334.538 308.723,381.937 282.85,418.118C257.975,452.873 219.87,478.441 166.332,496.285C165.293,496.637 164.228,496.791 163.176,496.791C159.301,496.791 155.632,494.513 154.021,490.758L137.975,452.98C136.909,450.47 136.896,447.633 137.968,445.137C139.04,442.613 141.097,440.676 143.641,439.717C193.178,421.134 207.759,373.928 202.366,324.511L136.77,324.511C131.263,324.511 126.802,320.05 126.802,314.537L126.802,138.808C126.802,133.309 131.263,128.848 136.77,128.848L311.346,128.848C316.859,128.848 321.32,133.309 321.32,138.808L321.32,273.183ZM409.301,407.345C481.429,376.777 531.358,310.868 531.358,235.551C531.358,131.724 436.433,45.714 319.176,45.714L52.291,46.832C45.58,46.832 41.125,51.32 41.125,58.031C41.125,58.031 40.18,655.807 40,771.579C40,778.237 44.468,782.752 51.172,782.752L364.965,782.752C481.076,782.752 576.021,696.742 576.021,592.881C576.021,502.63 504.3,425.855 409.301,407.345" style="fill-rule:nonzero;"/>
        </g>
        <g>
            <path d="M89.657,901.585C99.724,901.585 109.072,904.108 116.629,908.909L113.14,913.936C106.681,909.868 98.392,907.577 89.776,907.577C68.916,907.577 54.881,922.325 54.881,943.911C54.881,967.414 68.071,982.395 89.776,982.395C98.525,982.395 106.435,980.238 111.715,976.882L111.715,949.544L86.421,949.544L86.421,944.151L118.06,944.151L118.06,980.351C110.517,985.385 100.323,988.387 89.657,988.387C63.996,988.387 47.923,971.003 47.923,943.911C47.923,918.856 64.715,901.585 89.657,901.585" style="fill-rule:nonzero;"/>
            <path d="M184.678,955.904C197.149,955.904 201.703,948.699 201.703,941.988C201.703,935.163 197.382,928.319 184.812,928.319L162.62,928.319L162.62,955.904L184.678,955.904ZM156.028,922.693L184.925,922.693C202.429,922.693 208.421,932.64 208.421,941.988C208.421,949.545 204.227,957.701 192.948,960.458L208.175,986.944L200.984,986.944L186.722,961.29L162.62,961.29L162.62,986.944L156.028,986.944L156.028,922.693Z" style="fill-rule:nonzero;"/>
            <path d="M243.991,922.691L250.582,922.691L250.582,961.901C250.582,975.55 259.817,982.754 271.442,982.754C283.067,982.754 292.302,975.55 292.302,961.901L292.302,922.691L299.014,922.691L299.014,961.901C299.014,979.272 286.669,988.387 271.442,988.387C256.215,988.387 243.991,979.272 243.991,961.901L243.991,922.691Z" style="fill-rule:nonzero;"/>
            <path d="M365.151,955.904C377.742,955.904 382.302,948.699 382.302,942.108C382.302,935.163 377.988,928.319 365.397,928.319L343.938,928.319L343.938,955.904L365.151,955.904ZM337.347,922.693L365.517,922.693C382.902,922.693 388.894,932.64 388.894,941.988C388.894,951.103 382.768,961.536 365.397,961.536L343.938,961.536L343.938,986.944L337.347,986.944L337.347,922.693Z" style="fill-rule:nonzero;"/>
            <path d="M454.672,982.627C469.533,982.627 481.757,971.715 481.757,954.463C481.757,938.271 469.42,926.892 454.672,926.892C439.811,926.892 427.453,938.271 427.453,954.463C427.453,971.715 439.691,982.627 454.672,982.627M454.672,921.133C473.008,921.133 488.482,934.915 488.482,954.463C488.482,975.204 473.135,988.274 454.672,988.274C436.089,988.274 420.742,975.204 420.742,954.463C420.742,934.915 436.209,921.133 454.672,921.133" style="fill-rule:nonzero;"/>
            <path d="M592.725,981.314C613.232,981.314 622.82,971.247 622.82,953.862C622.82,937.803 612.633,928.202 592.725,928.202L578.942,928.202L578.942,981.314L592.725,981.314ZM572.344,922.689L592.492,922.689C616.707,922.689 629.411,934.567 629.411,953.982C629.411,974.602 617.42,986.947 592.492,986.947L572.344,986.947L572.344,922.689Z" style="fill-rule:nonzero;"/>
            <path d="M664.859,922.691L712.691,922.691L712.691,928.324L671.451,928.324L671.451,951.587L708.617,951.587L708.617,956.854L671.451,956.854L671.451,981.316L713.284,981.316L713.284,986.942L664.859,986.942L664.859,922.691Z" style="fill-rule:nonzero;"/>
            <path d="M799.323,968.011C801.846,975.082 807.592,982.279 818.385,982.279C831.808,982.279 837.8,972.924 837.8,959.608L837.8,903.027L844.645,903.027L844.645,959.608C844.645,976.999 836.122,988.391 818.618,988.391C804.836,988.391 797.045,979.869 793.577,970.767L799.323,968.011Z" style="fill-rule:nonzero;"/>
            <path d="M913.772,982.627C928.633,982.627 940.871,971.715 940.871,954.463C940.871,938.271 928.52,926.892 913.772,926.892C898.911,926.892 886.567,938.271 886.567,954.463C886.567,971.715 898.791,982.627 913.772,982.627M913.772,921.133C932.122,921.133 947.582,934.915 947.582,954.463C947.582,975.204 932.235,988.274 913.772,988.274C895.189,988.274 879.842,975.204 879.842,954.463C879.842,934.915 895.322,921.133 913.772,921.133" style="fill-rule:nonzero;"/>
            <path d="M973.93,922.691L981.001,922.691L1004.26,980.47L1004.5,980.47L1027.89,922.691L1034.94,922.691L1008.46,986.942L1000.3,986.942L973.93,922.691Z" style="fill-rule:nonzero;"/>
            <path d="M1066.92,922.691L1114.75,922.691L1114.75,928.324L1073.51,928.324L1073.51,951.587L1110.68,951.587L1110.68,956.854L1073.51,956.854L1073.51,981.316L1115.35,981.316L1115.35,986.942L1066.92,986.942L1066.92,922.691Z" style="fill-rule:nonzero;"/>
            <path d="M1151.18,922.691L1158.12,922.691L1199.01,977.361L1199.01,922.691L1205.48,922.691L1205.48,986.942L1198.41,986.942L1157.64,932.272L1157.64,986.942L1151.18,986.942L1151.18,922.691Z" style="fill-rule:nonzero;"/>
            <path d="M1243.09,976.879C1248,980.002 1256.27,982.759 1265.03,982.759C1277.73,982.759 1283.37,977.592 1283.37,970.641C1283.37,950.859 1241.17,963.929 1241.17,938.635C1241.17,928.801 1249.8,921.131 1265.15,921.131C1274.25,921.131 1281.92,923.175 1287.45,925.811L1284.81,930.965C1279.89,928.688 1272.93,926.763 1265.03,926.763C1254,926.763 1247.76,931.804 1247.76,938.515C1247.76,958.063 1290.08,944.747 1290.08,970.521C1290.08,980.834 1281.92,988.391 1265.15,988.391C1254.84,988.391 1245.6,985.382 1239.85,981.913L1243.09,976.879Z" style="fill-rule:nonzero;"/>
            <path d="M1393.73,981.314C1414.22,981.314 1423.83,971.247 1423.83,953.862C1423.83,937.803 1413.62,928.202 1393.73,928.202L1379.95,928.202L1379.95,981.314L1393.73,981.314ZM1373.35,922.689L1393.48,922.689C1417.7,922.689 1430.42,934.567 1430.42,953.982C1430.42,974.602 1418.42,986.947 1393.48,986.947L1373.35,986.947L1373.35,922.689Z" style="fill-rule:nonzero;"/>
            <path d="M1473.66,963.329L1502.91,963.329L1488.41,929.286L1488.16,929.286L1473.66,963.329ZM1484.33,922.687L1492.11,922.687L1520.17,986.945L1512.98,986.945L1505.18,968.609L1471.38,968.609L1463.58,986.945L1456.39,986.945L1484.33,922.687Z" style="fill-rule:nonzero;"/>
            <path d="M1601.16,903.029L1609.2,903.029L1641.08,950.028L1672.97,903.029L1681.01,903.029L1681.01,986.948L1674.41,986.948L1674.41,911.897L1641.08,960.575L1607.75,911.664L1607.75,986.948L1601.16,986.948L1601.16,903.029Z" style="fill-rule:nonzero;"/>
            <path d="M1720.16,922.691L1767.99,922.691L1767.99,928.324L1726.75,928.324L1726.75,951.587L1763.9,951.587L1763.9,956.854L1726.75,956.854L1726.75,981.316L1768.59,981.316L1768.59,986.942L1720.16,986.942L1720.16,922.691Z" style="fill-rule:nonzero;"/>
            <path d="M1803.57,922.691L1810.16,922.691L1810.16,961.901C1810.16,975.55 1819.4,982.754 1831.02,982.754C1842.65,982.754 1851.88,975.55 1851.88,961.901L1851.88,922.691L1858.59,922.691L1858.59,961.901C1858.59,979.272 1846.25,988.387 1831.02,988.387C1815.79,988.387 1803.57,979.272 1803.57,961.901L1803.57,922.691Z" style="fill-rule:nonzero;"/>
            <path d="M1927.37,921.131C1935.53,921.131 1943.56,923.534 1949.79,927.969L1946.19,932.643C1940.92,928.921 1934.44,926.89 1927.49,926.89C1910.94,926.89 1899.67,937.803 1899.67,953.982C1899.67,971.247 1910.59,982.759 1927.49,982.759C1935.16,982.759 1942.48,980.355 1947.51,975.801L1951.47,980.115C1945.35,985.515 1936.84,988.391 1927.37,988.391C1906.51,988.391 1893.08,974.356 1893.08,953.982C1893.08,934.68 1906.99,921.131 1927.37,921.131" style="fill-rule:nonzero;"/>
        </g>
        <g>
            <path d="M335.203,1037.22L339.637,1037.22L357.234,1063.15L374.825,1037.22L379.26,1037.22L379.26,1083.51L375.618,1083.51L375.618,1042.11L357.234,1068.97L338.845,1041.98L338.845,1083.51L335.203,1083.51L335.203,1037.22Z" style="fill-rule:nonzero;"/>
            <rect x="400.834" y="1048.07" width="3.709" height="35.448"/>
            <path d="M425.387,1077.96C428.09,1079.68 432.657,1081.2 437.491,1081.2C444.502,1081.2 447.612,1078.37 447.612,1074.52C447.612,1063.61 424.321,1070.82 424.321,1056.87C424.321,1051.45 429.095,1047.21 437.558,1047.21C442.578,1047.21 446.819,1048.34 449.862,1049.78L448.404,1052.63C445.687,1051.37 441.852,1050.32 437.491,1050.32C431.406,1050.32 427.963,1053.1 427.963,1056.8C427.963,1067.58 451.32,1060.24 451.32,1074.45C451.32,1080.14 446.819,1084.31 437.558,1084.31C431.865,1084.31 426.778,1082.65 423.602,1080.74L425.387,1077.96Z" style="fill-rule:nonzero;"/>
            <path d="M469.445,1077.96C472.148,1079.68 476.716,1081.2 481.549,1081.2C488.561,1081.2 491.67,1078.37 491.67,1074.52C491.67,1063.61 468.38,1070.82 468.38,1056.87C468.38,1051.45 473.154,1047.21 481.616,1047.21C486.636,1047.21 490.878,1048.34 493.92,1049.78L492.462,1052.63C489.746,1051.37 485.911,1050.32 481.549,1050.32C475.464,1050.32 472.022,1053.1 472.022,1056.8C472.022,1067.58 495.378,1060.24 495.378,1074.45C495.378,1080.14 490.878,1084.31 481.616,1084.31C475.923,1084.31 470.837,1082.65 467.661,1080.74L469.445,1077.96Z" style="fill-rule:nonzero;"/>
            <path d="M520.252,1070.48L536.391,1070.48L528.382,1051.7L528.248,1051.7L520.252,1070.48ZM524.021,1035.56C527.862,1035.56 529.773,1040.12 532.556,1040.12C534.208,1040.12 535.259,1038.73 535,1036.22L537.443,1036.22C537.976,1040.52 535.792,1042.97 532.683,1042.97C528.848,1042.97 526.937,1038.41 524.154,1038.41C522.436,1038.41 521.371,1039.79 521.71,1042.25L519.2,1042.25C518.727,1038.01 520.851,1035.56 524.021,1035.56M526.144,1048.06L530.432,1048.06L545.913,1083.51L541.944,1083.51L537.636,1073.39L518.994,1073.39L514.699,1083.51L510.731,1083.51L526.144,1048.06Z" style="fill-rule:nonzero;"/>
            <path d="M578.94,1081.13C587.13,1081.13 593.881,1075.11 593.881,1065.59C593.881,1056.65 587.07,1050.38 578.94,1050.38C570.737,1050.38 563.92,1056.65 563.92,1065.59C563.92,1075.11 570.671,1081.13 578.94,1081.13M578.94,1047.2C589.061,1047.2 597.59,1054.81 597.59,1065.59C597.59,1077.04 589.121,1084.24 578.94,1084.24C568.68,1084.24 560.211,1077.04 560.211,1065.59C560.211,1054.81 568.747,1047.2 578.94,1047.2" style="fill-rule:nonzero;"/>
            <path d="M644.039,1037.22L674.926,1037.22L674.926,1040.59L647.748,1040.59L647.748,1058.33L672.283,1058.33L672.283,1061.5L647.748,1061.5L647.748,1080.14L675.326,1080.14L675.326,1083.51L644.039,1083.51L644.039,1037.22Z" style="fill-rule:nonzero;"/>
            <path d="M691.154,1048.06L695.055,1048.06L707.879,1079.95L708.019,1079.95L720.909,1048.06L724.81,1048.06L710.189,1083.51L705.708,1083.51L691.154,1048.06Z" style="fill-rule:nonzero;"/>
            <path d="M744.731,1070.48L760.87,1070.48L752.874,1051.7L752.741,1051.7L744.731,1070.48ZM750.623,1048.06L754.925,1048.06L770.398,1083.51L766.437,1083.51L762.129,1073.39L743.486,1073.39L739.178,1083.51L735.21,1083.51L750.623,1048.06Z" style="fill-rule:nonzero;"/>
            <path d="M788.204,1048.06L792.039,1048.06L814.59,1078.21L814.59,1048.06L818.166,1048.06L818.166,1083.51L814.264,1083.51L791.766,1053.35L791.766,1083.51L788.204,1083.51L788.204,1048.06Z" style="fill-rule:nonzero;"/>
            <path d="M856.736,1047.21C861.104,1047.21 865.538,1048.34 869.113,1050.39L867.322,1053.04C864.346,1051.24 860.651,1050.39 856.736,1050.39C847.554,1050.39 841.329,1056.47 841.329,1065.34C841.329,1074.99 847.155,1081.2 856.736,1081.2C860.651,1081.2 864.086,1080.28 866.397,1078.89L866.397,1067.91L855.944,1067.91L855.944,1065.13L869.846,1065.13L869.846,1080.68C866.33,1083 861.636,1084.31 856.669,1084.31C845.031,1084.31 837.7,1076.85 837.7,1065.34C837.7,1054.69 845.37,1047.21 856.736,1047.21" style="fill-rule:nonzero;"/>
            <path d="M911.054,1033.25L913.771,1035.37L904.449,1044.42L901.859,1044.42L911.054,1033.25ZM890.687,1048.06L917.073,1048.06L917.073,1051.17L894.329,1051.17L894.329,1064L914.823,1064L914.823,1066.92L894.329,1066.92L894.329,1080.4L917.413,1080.4L917.413,1083.51L890.687,1083.51L890.687,1048.06Z" style="fill-rule:nonzero;"/>
            <path d="M937.128,1048.06L940.837,1048.06L940.837,1080.34L963.448,1080.34L963.448,1083.51L937.128,1083.51L937.128,1048.06Z" style="fill-rule:nonzero;"/>
            <rect x="981.991" y="1048.07" width="3.709" height="35.448"/>
            <path d="M1024.19,1047.21C1028.69,1047.21 1033.12,1048.54 1036.55,1050.98L1034.58,1053.56C1031.67,1051.51 1028.09,1050.39 1024.26,1050.39C1015.14,1050.39 1008.91,1056.4 1008.91,1065.34C1008.91,1074.86 1014.93,1081.2 1024.26,1081.2C1028.49,1081.2 1032.53,1079.89 1035.31,1077.37L1037.49,1079.75C1034.11,1082.72 1029.42,1084.31 1024.19,1084.31C1012.68,1084.31 1005.28,1076.57 1005.28,1065.34C1005.28,1054.69 1012.96,1047.21 1024.19,1047.21" style="fill-rule:nonzero;"/>
            <path d="M1062.11,1070.48L1078.25,1070.48L1070.24,1051.7L1070.11,1051.7L1062.11,1070.48ZM1068,1048.06L1072.29,1048.06L1087.77,1083.51L1083.8,1083.51L1079.5,1073.39L1060.85,1073.39L1056.56,1083.51L1052.59,1083.51L1068,1048.06Z" style="fill-rule:nonzero;"/>
            <path d="M1132.31,1037.22L1136.08,1037.22L1136.08,1066.58C1136.08,1075.97 1142.3,1081 1150.1,1081C1157.9,1081 1164.18,1075.97 1164.18,1066.58L1164.18,1037.22L1167.96,1037.22L1167.96,1066.58C1167.96,1078.37 1160.09,1084.31 1150.1,1084.31C1140.18,1084.31 1132.31,1078.37 1132.31,1066.58L1132.31,1037.22Z" style="fill-rule:nonzero;"/>
            <path d="M1189.41,1048.06L1193.25,1048.06L1215.8,1078.21L1215.8,1048.06L1219.37,1048.06L1219.37,1083.51L1215.47,1083.51L1192.97,1053.35L1192.97,1083.51L1189.41,1083.51L1189.41,1048.06Z" style="fill-rule:nonzero;"/>
            <rect x="1240.81" y="1048.07" width="3.709" height="35.448"/>
            <path d="M1271.89,1070.48L1288.03,1070.48L1280.03,1051.7L1279.9,1051.7L1271.89,1070.48ZM1275.66,1035.56C1279.5,1035.56 1281.42,1040.12 1284.19,1040.12C1285.86,1040.12 1286.91,1038.73 1286.65,1036.22L1289.1,1036.22C1289.61,1040.52 1287.44,1042.97 1284.33,1042.97C1280.5,1042.97 1278.58,1038.41 1275.79,1038.41C1274.07,1038.41 1273.02,1039.79 1273.35,1042.25L1270.84,1042.25C1270.37,1038.01 1272.49,1035.56 1275.66,1035.56M1277.78,1048.06L1282.08,1048.06L1297.56,1083.51L1293.6,1083.51L1289.29,1073.39L1270.64,1073.39L1266.34,1083.51L1262.37,1083.51L1277.78,1048.06Z" style="fill-rule:nonzero;"/>
            <path d="M1330.58,1081.13C1338.78,1081.13 1345.52,1075.11 1345.52,1065.59C1345.52,1056.65 1338.72,1050.38 1330.58,1050.38C1322.38,1050.38 1315.57,1056.65 1315.57,1065.59C1315.57,1075.11 1322.31,1081.13 1330.58,1081.13M1330.58,1047.2C1340.7,1047.2 1349.23,1054.81 1349.23,1065.59C1349.23,1077.04 1340.76,1084.24 1330.58,1084.24C1320.33,1084.24 1311.86,1077.04 1311.86,1065.59C1311.86,1054.81 1320.4,1047.2 1330.58,1047.2" style="fill-rule:nonzero;"/>
            <path d="M1416.72,1036.43C1422.21,1036.43 1427.5,1038.08 1431.47,1041.06L1429.41,1043.91C1425.91,1041.26 1421.48,1039.73 1416.79,1039.73C1405.28,1039.73 1397.47,1047.81 1397.47,1059.77C1397.47,1072.54 1405.08,1081.01 1416.79,1081.01C1422.01,1081.01 1426.77,1079.23 1430.14,1076.05L1432.52,1078.56C1428.49,1082.34 1422.87,1084.31 1416.65,1084.31C1402.9,1084.31 1393.7,1074.45 1393.7,1059.77C1393.7,1045.88 1403.09,1036.43 1416.72,1036.43" style="fill-rule:nonzero;"/>
            <path d="M1468.4,1066.39C1475.28,1066.39 1477.8,1062.42 1477.8,1058.72C1477.8,1054.94 1475.41,1051.18 1468.47,1051.18L1456.24,1051.18L1456.24,1066.39L1468.4,1066.39ZM1452.6,1048.07L1468.54,1048.07C1478.19,1048.07 1481.5,1053.55 1481.5,1058.72C1481.5,1062.88 1479.18,1067.38 1472.97,1068.9L1481.36,1083.51L1477.4,1083.51L1469.53,1069.37L1456.24,1069.37L1456.24,1083.51L1452.6,1083.51L1452.6,1048.07Z" style="fill-rule:nonzero;"/>
            <rect x="1501.63" y="1048.07" width="3.709" height="35.448"/>
            <path d="M1526.17,1077.96C1528.87,1079.68 1533.44,1081.2 1538.27,1081.2C1545.29,1081.2 1548.39,1078.37 1548.39,1074.52C1548.39,1063.61 1525.1,1070.82 1525.1,1056.87C1525.1,1051.45 1529.88,1047.21 1538.34,1047.21C1543.36,1047.21 1547.6,1048.34 1550.64,1049.78L1549.19,1052.63C1546.47,1051.37 1542.63,1050.32 1538.27,1050.32C1532.19,1050.32 1528.75,1053.1 1528.75,1056.8C1528.75,1067.58 1552.1,1060.24 1552.1,1074.45C1552.1,1080.14 1547.6,1084.31 1538.34,1084.31C1532.65,1084.31 1527.56,1082.65 1524.38,1080.74L1526.17,1077.96Z" style="fill-rule:nonzero;"/>
            <path d="M1581.54,1051.24L1567.12,1051.24L1567.12,1048.06L1599.52,1048.06L1599.52,1051.24L1585.24,1051.24L1585.24,1083.52L1581.54,1083.52L1581.54,1051.24Z" style="fill-rule:nonzero;"/>
            <path d="M1618.91,1070.48L1635.05,1070.48L1627.05,1051.7L1626.92,1051.7L1618.91,1070.48ZM1622.68,1035.56C1626.52,1035.56 1628.44,1040.12 1631.21,1040.12C1632.88,1040.12 1633.93,1038.73 1633.67,1036.22L1636.11,1036.22C1636.63,1040.52 1634.46,1042.97 1631.35,1042.97C1627.52,1042.97 1625.6,1038.41 1622.81,1038.41C1621.09,1038.41 1620.04,1039.79 1620.37,1042.25L1617.86,1042.25C1617.38,1038.01 1619.51,1035.56 1622.68,1035.56M1624.8,1048.06L1629.1,1048.06L1644.58,1083.51L1640.62,1083.51L1636.31,1073.39L1617.66,1073.39L1613.36,1083.51L1609.39,1083.51L1624.8,1048.06Z" style="fill-rule:nonzero;"/>
        </g>
    </g>
</svg>
