<?xml version="1.0" encoding="UTF-8" standalone="no"?>
<!DOCTYPE svg PUBLIC "-//W3C//DTD SVG 1.1//EN" "http://www.w3.org/Graphics/SVG/1.1/DTD/svg11.dtd">
<svg width="100%" height="100%" viewBox="0 0 1200 1200" version="1.1" xmlns="http://www.w3.org/2000/svg" xmlns:xlink="http://www.w3.org/1999/xlink" xml:space="preserve" xmlns:serif="http://www.serif.com/" style="fill-rule:evenodd;clip-rule:evenodd;stroke-linejoin:round;stroke-miterlimit:2;">
    <rect id="icone_preto" x="0" y="0" width="1200" height="1200" style="fill:none;"/>
    <path d="M619.862,389.499C619.862,481.045 601.078,551.8 562.442,605.791C525.332,657.667 468.452,695.824 388.551,722.46C386.997,722.981 385.409,723.22 383.841,723.22C378.043,723.22 372.573,719.811 370.17,714.211L346.232,657.824C344.63,654.08 344.623,649.856 346.218,646.112C347.82,642.381 350.873,639.458 354.686,638.027C428.611,610.296 450.373,539.862 442.323,466.094L344.431,466.094C336.21,466.094 329.549,459.426 329.549,451.219L329.549,188.944C329.549,180.723 336.21,174.076 344.431,174.076L604.98,174.076C613.195,174.076 619.862,180.723 619.862,188.944L619.862,389.499ZM751.167,589.704C858.821,544.099 933.334,445.749 933.334,333.331C933.334,178.354 791.672,50 616.672,50L218.343,51.67C208.334,51.67 201.674,58.358 201.674,68.36C201.674,68.36 200.284,960.556 200.003,1133.32C200.003,1143.29 206.685,1150 216.686,1150L685.012,1150C858.307,1150 999.997,1021.65 999.997,866.642C999.997,731.935 892.966,617.354 751.167,589.704" style="fill-rule:nonzero;"/>
</svg>
