<?xml version="1.0" encoding="UTF-8" standalone="no"?>
<!DOCTYPE svg PUBLIC "-//W3C//DTD SVG 1.1//EN" "http://www.w3.org/Graphics/SVG/1.1/DTD/svg11.dtd">
<svg width="100%" height="100%" viewBox="0 0 2000 320" version="1.1" xmlns="http://www.w3.org/2000/svg" xmlns:xlink="http://www.w3.org/1999/xlink" xml:space="preserve" xmlns:serif="http://www.serif.com/" style="fill-rule:evenodd;clip-rule:evenodd;stroke-linejoin:round;stroke-miterlimit:2;">
    <rect id="logo_branco" x="0" y="0" width="2000" height="320" style="fill:none;"/>
    <g>
        <g>
            <path d="M138.041,286.076C139.232,289.418 141.954,292.817 147.057,292.817C153.405,292.817 156.243,288.398 156.243,282.107L156.243,255.342L159.472,255.342L159.472,282.107C159.472,290.326 155.446,295.713 147.17,295.713C140.649,295.713 136.964,291.687 135.319,287.38L138.041,286.076Z" style="fill:white;fill-rule:nonzero;"/>
            <path d="M177.507,264.643L180.626,264.643L180.626,283.185C180.626,289.646 184.992,293.048 190.493,293.048C195.993,293.048 200.356,289.646 200.356,283.185L200.356,264.643L203.531,264.643L203.531,283.185C203.531,291.404 197.691,295.71 190.493,295.71C183.291,295.71 177.507,291.404 177.507,283.185L177.507,264.643Z" style="fill:white;fill-rule:nonzero;"/>
            <path d="M218.334,264.643L221.679,264.643L232.676,291.971L232.79,291.971L243.847,264.643L247.193,264.643L234.664,295.033L230.805,295.033L218.334,264.643Z" style="fill:white;fill-rule:nonzero;"/>
            <path d="M262.334,264.643L284.959,264.643L284.959,267.308L265.453,267.308L265.453,278.305L283.031,278.305L283.031,280.8L265.453,280.8L265.453,292.371L285.243,292.371L285.243,295.033L262.334,295.033L262.334,264.643Z" style="fill:white;fill-rule:nonzero;"/>
            <path d="M302.198,264.643L305.487,264.643L324.82,290.496L324.82,264.643L327.882,264.643L327.882,295.033L324.536,295.033L305.257,269.176L305.257,295.033L302.198,295.033L302.198,264.643Z" style="fill:white;fill-rule:nonzero;"/>
            <path d="M355.442,267.362L343.08,267.362L343.08,264.644L370.865,264.644L370.865,267.362L358.617,267.362L358.617,295.034L355.442,295.034L355.442,267.362Z" style="fill:white;fill-rule:nonzero;"/>
            <path d="M385.836,264.643L388.955,264.643L388.955,283.185C388.955,289.646 393.321,293.048 398.821,293.048C404.322,293.048 408.685,289.646 408.685,283.185L408.685,264.643L411.86,264.643L411.86,283.185C411.86,291.404 406.02,295.71 398.821,295.71C391.62,295.71 385.836,291.404 385.836,283.185L385.836,264.643Z" style="fill:white;fill-rule:nonzero;"/>
            <path d="M439.648,292.369C449.344,292.369 453.881,287.606 453.881,279.384C453.881,271.786 449.061,267.249 439.648,267.249L433.127,267.249L433.127,292.369L439.648,292.369ZM430.008,264.641L439.535,264.641C450.986,264.641 456.996,270.255 456.996,279.441C456.996,289.191 451.326,295.034 439.535,295.034L430.008,295.034L430.008,264.641Z" style="fill:white;fill-rule:nonzero;"/>
            <path d="M473.784,264.643L496.405,264.643L496.405,267.308L476.902,267.308L476.902,278.305L494.477,278.305L494.477,280.8L476.902,280.8L476.902,292.371L496.689,292.371L496.689,295.033L473.784,295.033L473.784,264.643Z" style="fill:white;fill-rule:nonzero;"/>
            <path d="M546.251,292.369C555.944,292.369 560.483,287.606 560.483,279.384C560.483,271.786 555.66,267.249 546.251,267.249L539.73,267.249L539.73,292.369L546.251,292.369ZM536.611,264.641L546.137,264.641C557.588,264.641 563.599,270.255 563.599,279.441C563.599,289.191 557.928,295.034 546.137,295.034L536.611,295.034L536.611,264.641Z" style="fill:white;fill-rule:nonzero;"/>
            <path d="M584.072,283.861L597.908,283.861L591.047,267.76L590.937,267.76L584.072,283.861ZM589.122,264.642L592.805,264.642L606.073,295.035L602.671,295.035L598.985,286.356L582.998,286.356L579.309,295.035L575.91,295.035L589.122,264.642Z" style="fill:white;fill-rule:nonzero;"/>
            <path d="M644.405,255.343L648.205,255.343L663.285,277.567L678.368,255.343L682.164,255.343L682.164,295.032L679.048,295.032L679.048,259.539L663.285,282.557L647.524,259.425L647.524,295.032L644.405,295.032L644.405,255.343Z" style="fill:white;fill-rule:nonzero;"/>
            <rect x="700.654" y="264.641" width="3.175" height="30.39" style="fill:white;"/>
            <path d="M721.69,290.272C724.015,291.743 727.927,293.047 732.067,293.047C738.077,293.047 740.743,290.612 740.743,287.32C740.743,277.967 720.786,284.148 720.786,272.183C720.786,267.536 724.865,263.907 732.123,263.907C736.433,263.907 740.062,264.871 742.67,266.116L741.423,268.554C739.098,267.476 735.806,266.572 732.067,266.572C726.85,266.572 723.901,268.947 723.901,272.13C723.901,281.366 743.918,275.071 743.918,287.266C743.918,292.143 740.062,295.712 732.123,295.712C727.247,295.712 722.881,294.294 720.159,292.65L721.69,290.272Z" style="fill:white;fill-rule:nonzero;"/>
            <path d="M759.456,290.272C761.781,291.743 765.693,293.047 769.833,293.047C775.843,293.047 778.508,290.612 778.508,287.32C778.508,277.967 758.552,284.148 758.552,272.183C758.552,267.536 762.631,263.907 769.889,263.907C774.199,263.907 777.828,264.871 780.436,266.116L779.189,268.554C776.864,267.476 773.572,266.572 769.833,266.572C764.616,266.572 761.667,268.947 761.667,272.13C761.667,281.366 781.684,275.071 781.684,287.266C781.684,292.143 777.828,295.712 769.889,295.712C765.013,295.712 760.646,294.294 757.925,292.65L759.456,290.272Z" style="fill:white;fill-rule:nonzero;"/>
            <path d="M803.007,283.861L816.84,283.861L809.978,267.76L809.868,267.76L803.007,283.861ZM806.239,253.924C809.525,253.924 811.169,257.837 813.551,257.837C814.968,257.837 815.876,256.65 815.649,254.491L817.747,254.491C818.2,258.181 816.329,260.279 813.664,260.279C810.375,260.279 808.734,256.363 806.349,256.363C804.878,256.363 803.968,257.553 804.251,259.652L802.1,259.652C801.699,256.022 803.514,253.924 806.239,253.924M808.054,264.642L811.736,264.642L825.005,295.035L821.603,295.035L817.917,286.356L801.93,286.356L798.24,295.035L794.842,295.035L808.054,264.642Z" style="fill:white;fill-rule:nonzero;"/>
            <path d="M853.301,292.991C860.329,292.991 866.113,287.831 866.113,279.666C866.113,272.011 860.272,266.627 853.301,266.627C846.269,266.627 840.429,272.011 840.429,279.666C840.429,287.831 846.213,292.991 853.301,292.991M853.301,263.905C861.977,263.905 869.288,270.423 869.288,279.666C869.288,289.476 862.03,295.657 853.301,295.657C844.512,295.657 837.253,289.476 837.253,279.666C837.253,270.423 844.568,263.905 853.301,263.905" style="fill:white;fill-rule:nonzero;"/>
            <path d="M909.1,255.343L935.574,255.343L935.574,258.235L912.272,258.235L912.272,273.431L933.309,273.431L933.309,276.15L912.272,276.15L912.272,292.141L935.918,292.141L935.918,295.032L909.1,295.032L909.1,255.343Z" style="fill:white;fill-rule:nonzero;"/>
            <path d="M949.472,264.643L952.817,264.643L963.818,291.971L963.928,291.971L974.985,264.643L978.331,264.643L965.802,295.033L961.943,295.033L949.472,264.643Z" style="fill:white;fill-rule:nonzero;"/>
            <path d="M995.401,283.861L1009.24,283.861L1002.38,267.76L1002.26,267.76L995.401,283.861ZM1000.45,264.642L1004.13,264.642L1017.4,295.035L1014,295.035L1010.31,286.356L994.327,286.356L990.638,295.035L987.239,295.035L1000.45,264.642Z" style="fill:white;fill-rule:nonzero;"/>
            <path d="M1032.66,264.643L1035.95,264.643L1055.29,290.496L1055.29,264.643L1058.35,264.643L1058.35,295.033L1055,295.033L1035.72,269.176L1035.72,295.033L1032.66,295.033L1032.66,264.643Z" style="fill:white;fill-rule:nonzero;"/>
            <path d="M1091.4,263.906C1095.14,263.906 1098.94,264.87 1102.01,266.625L1100.48,268.893C1097.92,267.362 1094.75,266.625 1091.4,266.625C1083.52,266.625 1078.19,271.842 1078.19,279.44C1078.19,287.719 1083.18,293.046 1091.4,293.046C1094.75,293.046 1097.69,292.252 1099.68,291.064L1099.68,281.652L1090.72,281.652L1090.72,279.267L1102.62,279.267L1102.62,292.595C1099.62,294.577 1095.6,295.711 1091.34,295.711C1081.37,295.711 1075.07,289.307 1075.07,279.44C1075.07,270.311 1081.65,263.906 1091.4,263.906" style="fill:white;fill-rule:nonzero;"/>
            <path d="M1137.95,251.942L1140.28,253.757L1132.28,261.522L1130.07,261.522L1137.95,251.942ZM1120.49,264.644L1143.11,264.644L1143.11,267.306L1123.6,267.306L1123.6,278.303L1141.18,278.303L1141.18,280.798L1123.6,280.798L1123.6,292.369L1143.39,292.369L1143.39,295.034L1120.49,295.034L1120.49,264.644Z" style="fill:white;fill-rule:nonzero;"/>
            <path d="M1160.29,264.643L1163.47,264.643L1163.47,292.311L1182.86,292.311L1182.86,295.033L1160.29,295.033L1160.29,264.643Z" style="fill:white;fill-rule:nonzero;"/>
            <rect x="1198.74" y="264.641" width="3.172" height="30.39" style="fill:white;"/>
            <path d="M1234.92,263.906C1238.77,263.906 1242.58,265.04 1245.52,267.139L1243.82,269.347C1241.32,267.589 1238.26,266.625 1234.97,266.625C1227.15,266.625 1221.82,271.785 1221.82,279.44C1221.82,287.605 1226.98,293.046 1234.97,293.046C1238.6,293.046 1242.06,291.912 1244.44,289.757L1246.31,291.802C1243.42,294.35 1239.4,295.711 1234.92,295.711C1225.05,295.711 1218.71,289.08 1218.71,279.44C1218.71,270.311 1225.28,263.906 1234.92,263.906" style="fill:white;fill-rule:nonzero;"/>
            <path d="M1267.41,283.861L1281.25,283.861L1274.38,267.76L1274.27,267.76L1267.41,283.861ZM1272.46,264.642L1276.14,264.642L1289.41,295.035L1286.01,295.035L1282.32,286.356L1266.34,286.356L1262.65,295.035L1259.25,295.035L1272.46,264.642Z" style="fill:white;fill-rule:nonzero;"/>
            <path d="M1327.57,255.343L1330.8,255.343L1330.8,280.519C1330.8,288.568 1336.13,292.878 1342.82,292.878C1349.51,292.878 1354.9,288.568 1354.9,280.519L1354.9,255.343L1358.13,255.343L1358.13,280.519C1358.13,290.609 1351.38,295.713 1342.82,295.713C1334.32,295.713 1327.57,290.609 1327.57,280.519L1327.57,255.343Z" style="fill:white;fill-rule:nonzero;"/>
            <path d="M1376.51,264.643L1379.8,264.643L1399.13,290.496L1399.13,264.643L1402.2,264.643L1402.2,295.033L1398.85,295.033L1379.57,269.176L1379.57,295.033L1376.51,295.033L1376.51,264.643Z" style="fill:white;fill-rule:nonzero;"/>
            <rect x="1420.56" y="264.641" width="3.179" height="30.39" style="fill:white;"/>
            <path d="M1447.22,283.861L1461.06,283.861L1454.19,267.76L1454.08,267.76L1447.22,283.861ZM1450.45,253.924C1453.74,253.924 1455.38,257.837 1457.77,257.837C1459.18,257.837 1460.09,256.65 1459.87,254.491L1461.96,254.491C1462.41,258.181 1460.54,260.279 1457.88,260.279C1454.59,260.279 1452.95,256.363 1450.56,256.363C1449.09,256.363 1448.18,257.553 1448.46,259.652L1446.32,259.652C1445.92,256.022 1447.73,253.924 1450.45,253.924M1452.27,264.642L1455.95,264.642L1469.22,295.035L1465.82,295.035L1462.13,286.356L1446.15,286.356L1442.46,295.035L1439.06,295.035L1452.27,264.642Z" style="fill:white;fill-rule:nonzero;"/>
            <path d="M1497.51,292.991C1504.54,292.991 1510.33,287.831 1510.33,279.666C1510.33,272.011 1504.48,266.627 1497.51,266.627C1490.48,266.627 1484.64,272.011 1484.64,279.666C1484.64,287.831 1490.42,292.991 1497.51,292.991M1497.51,263.905C1506.19,263.905 1513.5,270.423 1513.5,279.666C1513.5,289.476 1506.24,295.657 1497.51,295.657C1488.72,295.657 1481.46,289.476 1481.46,279.666C1481.46,270.423 1488.78,263.905 1497.51,263.905" style="fill:white;fill-rule:nonzero;"/>
            <path d="M1571.34,254.662C1576.04,254.662 1580.58,256.083 1583.98,258.628L1582.23,261.069C1579.22,258.801 1575.42,257.497 1571.39,257.497C1561.53,257.497 1554.84,264.415 1554.84,274.675C1554.84,285.619 1561.36,292.877 1571.39,292.877C1575.87,292.877 1579.95,291.346 1582.84,288.625L1584.89,290.779C1581.43,294.011 1576.61,295.713 1571.28,295.713C1559.49,295.713 1551.61,287.264 1551.61,274.675C1551.61,262.774 1559.66,254.662 1571.34,254.662" style="fill:white;fill-rule:nonzero;"/>
            <path d="M1615.62,280.35C1621.52,280.35 1623.67,276.944 1623.67,273.769C1623.67,270.54 1621.63,267.308 1615.68,267.308L1605.19,267.308L1605.19,280.35L1615.62,280.35ZM1602.07,264.643L1615.74,264.643C1624.01,264.643 1626.84,269.346 1626.84,273.769C1626.84,277.344 1624.86,281.197 1619.54,282.501L1626.73,295.033L1623.34,295.033L1616.58,282.898L1605.19,282.898L1605.19,295.033L1602.07,295.033L1602.07,264.643Z" style="fill:white;fill-rule:nonzero;"/>
            <rect x="1644.09" y="264.641" width="3.172" height="30.39" style="fill:white;"/>
            <path d="M1665.13,290.272C1667.45,291.743 1671.36,293.047 1675.51,293.047C1681.51,293.047 1684.18,290.612 1684.18,287.32C1684.18,277.967 1664.23,284.148 1664.23,272.183C1664.23,267.536 1668.3,263.907 1675.56,263.907C1679.87,263.907 1683.5,264.871 1686.11,266.116L1684.86,268.554C1682.54,267.476 1679.25,266.572 1675.51,266.572C1670.29,266.572 1667.34,268.947 1667.34,272.13C1667.34,281.366 1687.36,275.071 1687.36,287.266C1687.36,292.143 1683.5,295.712 1675.56,295.712C1670.69,295.712 1666.32,294.294 1663.6,292.65L1665.13,290.272Z" style="fill:white;fill-rule:nonzero;"/>
            <path d="M1712.59,267.362L1700.23,267.362L1700.23,264.644L1728.01,264.644L1728.01,267.362L1715.76,267.362L1715.76,295.034L1712.59,295.034L1712.59,267.362Z" style="fill:white;fill-rule:nonzero;"/>
            <path d="M1744.63,283.861L1758.47,283.861L1751.6,267.76L1751.49,267.76L1744.63,283.861ZM1747.86,253.924C1751.15,253.924 1752.79,257.837 1755.18,257.837C1756.59,257.837 1757.5,256.65 1757.28,254.491L1759.37,254.491C1759.82,258.181 1757.95,260.279 1755.29,260.279C1752,260.279 1750.36,256.363 1747.97,256.363C1746.5,256.363 1745.59,257.553 1745.87,259.652L1743.73,259.652C1743.33,256.022 1745.14,253.924 1747.86,253.924M1749.68,264.642L1753.36,264.642L1766.63,295.035L1763.23,295.035L1759.54,286.356L1743.56,286.356L1739.87,295.035L1736.47,295.035L1749.68,264.642Z" style="fill:white;fill-rule:nonzero;"/>
        </g>
        <g>
            <path d="M159.901,35.128C159.901,34.21 159.151,33.46 158.234,33.46L143.974,33.46C143.053,33.46 142.306,34.21 142.306,35.128L142.306,153.203C142.306,182.619 128.507,198.817 103.45,198.817C79.084,198.817 69.057,180.858 65.248,170.151C65.085,169.711 64.748,169.35 64.311,169.174C64.107,169.087 63.887,169.044 63.664,169.044C63.417,169.044 63.184,169.097 62.967,169.2L50.945,174.964C50.168,175.338 49.801,176.262 50.108,177.066C59.288,201.115 78.911,214.907 103.951,214.907C139.508,214.907 159.901,192.419 159.901,153.203L159.901,35.128Z" style="fill:white;fill-rule:nonzero;"/>
            <path d="M375.543,35.128C375.543,34.21 374.796,33.46 373.875,33.46L359.619,33.46C358.695,33.46 357.951,34.21 357.951,35.128L357.951,146.198C357.951,178.313 337.688,199.064 306.333,199.064C275.129,199.064 254.969,178.313 254.969,146.198L254.969,35.128C254.969,34.21 254.222,33.46 253.302,33.46L239.042,33.46C238.121,33.46 237.374,34.21 237.374,35.128L237.374,146.198C237.374,187.939 264.439,214.907 306.333,214.907C348.375,214.907 375.543,187.939 375.543,146.198L375.543,35.128Z" style="fill:white;fill-rule:nonzero;"/>
            <path d="M622.035,33.46L605.277,33.46C604.724,33.46 604.207,33.733 603.896,34.19L541.495,126.152C540.251,127.983 537.212,127.983 535.971,126.152L473.57,34.194C473.259,33.733 472.746,33.46 472.192,33.46L455.431,33.46C454.51,33.46 453.763,34.21 453.763,35.128L453.763,210.238C453.763,211.155 454.51,211.905 455.431,211.905L469.19,211.905C470.107,211.905 470.858,211.155 470.858,210.238L470.858,69.37C470.858,67.906 471.812,66.612 473.209,66.182C474.61,65.761 476.125,66.282 476.948,67.489L537.352,156.142C537.976,157.056 539.483,157.066 540.107,156.145L600.521,67.919C601.151,66.996 602.195,66.469 603.273,66.469C603.603,66.469 603.933,66.519 604.26,66.619C605.654,67.052 606.608,68.343 606.608,69.804L606.608,210.238C606.608,211.155 607.355,211.905 608.276,211.905L622.035,211.905C622.956,211.905 623.703,211.155 623.703,210.238L623.703,35.128C623.703,34.21 622.956,33.46 622.035,33.46" style="fill:white;fill-rule:nonzero;"/>
            <path d="M822.667,195.814L723.357,195.814C721.513,195.814 720.022,194.323 720.022,192.478L720.022,131.941C720.022,130.097 721.513,128.606 723.357,128.606L811.162,128.606C812.08,128.606 812.83,127.855 812.83,126.938L812.83,114.93C812.83,114.013 812.08,113.262 811.162,113.262L723.357,113.262C721.513,113.262 720.022,111.771 720.022,109.927L720.022,52.892C720.022,51.051 721.513,49.557 723.357,49.557L821.169,49.557C822.086,49.557 822.837,48.809 822.837,47.889L822.837,35.127C822.837,34.21 822.086,33.459 821.169,33.459L704.341,33.459C703.421,33.459 702.673,34.21 702.673,35.127L702.673,210.237C702.673,211.158 703.421,211.905 704.341,211.905L822.667,211.905C823.584,211.905 824.335,211.158 824.335,210.237L824.335,197.482C824.335,196.565 823.584,195.814 822.667,195.814" style="fill:white;fill-rule:nonzero;"/>
            <path d="M1035.72,35.128C1035.72,34.21 1034.97,33.46 1034.05,33.46L1019.79,33.46C1018.87,33.46 1018.12,34.21 1018.12,35.128L1018.12,146.198C1018.12,178.313 997.862,199.064 966.508,199.064C935.303,199.064 915.143,178.313 915.143,146.198L915.143,35.128C915.143,34.21 914.396,33.46 913.476,33.46L899.216,33.46C898.299,33.46 897.548,34.21 897.548,35.128L897.548,146.198C897.548,187.939 924.616,214.907 966.508,214.907C1008.55,214.907 1035.72,187.939 1035.72,146.198L1035.72,35.128Z" style="fill:white;fill-rule:nonzero;"/>
            <path d="M1246.15,180.824C1245.72,180.367 1245.21,180.3 1244.94,180.3C1244.51,180.3 1244.11,180.463 1243.79,180.754C1231.25,192.565 1213.71,199.066 1194.41,199.066C1151.04,199.066 1123.03,168.199 1123.03,120.433C1123.03,76.094 1151.71,46.304 1194.41,46.304C1211.39,46.304 1228.01,51.778 1241.18,61.728C1241.47,61.945 1241.83,62.065 1242.19,62.065C1242.88,61.978 1243.28,61.738 1243.54,61.367L1251.29,50.614C1251.82,49.883 1251.66,48.846 1250.94,48.305C1235.6,36.798 1215.43,30.46 1194.16,30.46C1141.92,30.46 1105.43,67.458 1105.43,120.433C1105.43,176.941 1140.99,214.91 1193.9,214.91C1218.03,214.91 1239.76,207.021 1255.09,192.695C1255.41,192.395 1255.6,191.971 1255.61,191.531C1255.63,191.084 1255.46,190.65 1255.15,190.33L1246.15,180.824Z" style="fill:white;fill-rule:nonzero;"/>
        </g>
        <g>
            <path d="M1945.83,124.103L1872.71,124.103C1870.41,124.103 1868.54,125.971 1868.54,128.276L1868.54,201.871C1868.54,204.176 1870.41,206.048 1872.71,206.048L1900.18,206.048C1902.44,226.745 1896.34,246.518 1875.59,254.296C1874.52,254.7 1873.66,255.514 1873.22,256.571C1872.77,257.619 1872.77,258.806 1873.22,259.85L1879.94,275.677C1880.61,277.248 1882.14,278.206 1883.78,278.206C1884.21,278.206 1884.66,278.142 1885.09,277.992C1907.52,270.52 1923.48,259.813 1933.9,245.254C1944.74,230.1 1950,210.244 1950,184.553L1950,128.276C1950,125.971 1948.13,124.103 1945.83,124.103" style="fill:white;fill-rule:nonzero;"/>
            <path d="M1404.65,115.875C1422.92,108.14 1435.57,91.445 1435.57,72.366C1435.57,46.068 1411.53,24.287 1381.83,24.287L1314.24,24.574C1312.54,24.574 1311.41,25.708 1311.41,27.406C1311.41,27.406 1311.17,178.803 1311.12,208.12C1311.12,209.814 1312.26,210.955 1313.95,210.955L1393.43,210.955C1422.83,210.955 1446.88,189.17 1446.88,162.869C1446.88,140.008 1428.72,120.565 1404.65,115.875" style="fill:white;fill-rule:nonzero;"/>
            <path d="M1627.09,164.211L1551.37,164.211C1548.49,164.211 1546.15,161.876 1546.15,158.994L1546.15,26.413C1546.15,25.452 1545.37,24.675 1544.41,24.675L1493.82,24.675C1492.86,24.675 1492.08,25.452 1492.08,26.413L1492.08,208.981C1492.08,209.941 1492.86,210.719 1493.82,210.719L1627.09,210.719C1628.05,210.719 1628.83,209.941 1628.83,208.981L1628.83,165.949C1628.83,164.991 1628.05,164.211 1627.09,164.211" style="fill:white;fill-rule:nonzero;"/>
            <path d="M1828.84,26.424C1828.84,25.46 1828.06,24.676 1827.1,24.676L1776.29,24.676C1775.33,24.676 1774.54,25.46 1774.54,26.424L1774.54,139.046C1774.54,157.351 1763.77,168.732 1746.43,168.732C1728.99,168.732 1718.58,157.625 1718.58,139.046L1718.58,26.424C1718.58,25.46 1717.8,24.676 1716.83,24.676L1665.76,24.676C1664.8,24.676 1664.01,25.46 1664.01,26.424L1664.01,138.779C1664.01,187.868 1693.28,214.909 1746.43,214.909C1799.57,214.909 1828.84,187.868 1828.84,138.779L1828.84,26.424Z" style="fill:white;fill-rule:nonzero;"/>
        </g>
    </g>
</svg>
